<?xml version="1.0" encoding="utf-8"?>
<!-- Generator: Adobe Illustrator 16.0.4, SVG Export Plug-In . SVG Version: 6.00 Build 0)  -->
<!DOCTYPE svg PUBLIC "-//W3C//DTD SVG 1.1//EN" "http://www.w3.org/Graphics/SVG/1.1/DTD/svg11.dtd">
<svg version="1.1" id="Layer_1" xmlns="http://www.w3.org/2000/svg" xmlns:xlink="http://www.w3.org/1999/xlink" x="0px" y="0px"
	 width="89px" height="89px" viewBox="0 0 89 89" enable-background="new 0 0 89 89" xml:space="preserve">
<circle fill="#2D823F" stroke="#2D823F" stroke-width="3" stroke-miterlimit="10" cx="43.848" cy="44.848" r="41.848"/>
<g id="Your_Icon">
	<path fill="#FFFFFF" d="M65.614,24.545c0,0-0.726-4.981-5.887-4.981H27.742c-5.163,0-5.888,4.981-5.888,4.981l-0.942,30.777
		l1.265,7.153l-0.814,0.997l1.37,4.817h2.062v1.951c0,0.713,0.578,1.295,1.293,1.295h1.84h1.996h1.843
		c0.713,0,1.292-0.582,1.292-1.297V68.29h21.244v1.949c0,0.715,0.579,1.297,1.292,1.297h1.926h1.912h1.926
		c0.715,0,1.294-0.582,1.294-1.297V68.29h2.082l1.369-4.818l-0.814-0.996l1.268-7.153L65.614,24.545z M31.403,60.235l-7.431-0.662
		l-0.753-4.25c0,0,3.437,0.736,8.236,1.426L31.403,60.235z M23.31,50.25l0.317-21.991l8.514-0.905h22.727l8.515,0.905l0.772,21.991
		c0,0-8.27,2.34-20.422,2.34C31.581,52.59,23.31,50.25,23.31,50.25z M63.414,59.572l-7.43,0.663l-0.052-3.486
		c4.8-0.69,8.237-1.426,8.237-1.426L63.414,59.572z"/>
</g>
</svg>
